<?xml version="1.0" encoding="UTF-8" standalone="no"?>
<svg
   version="1.1"
   viewBox="0 0 80.000001 80.000003"
   id="svg5"
   sodipodi:docname="ax-off.svg"
   width="80"
   height="80"
   inkscape:version="1.3.2 (091e20ef0f, 2023-11-25, custom)"
   xmlns:inkscape="http://www.inkscape.org/namespaces/inkscape"
   xmlns:sodipodi="http://sodipodi.sourceforge.net/DTD/sodipodi-0.dtd"
   xmlns="http://www.w3.org/2000/svg"
   xmlns:svg="http://www.w3.org/2000/svg">
  <defs
     id="defs5" />
  <sodipodi:namedview
     id="namedview5"
     pagecolor="#ffffff"
     bordercolor="#000000"
     borderopacity="0.25"
     inkscape:showpageshadow="2"
     inkscape:pageopacity="0.0"
     inkscape:pagecheckerboard="0"
     inkscape:deskcolor="#d1d1d1"
     inkscape:zoom="11.073535"
     inkscape:cx="10.339969"
     inkscape:cy="38.154033"
     inkscape:window-width="3440"
     inkscape:window-height="1411"
     inkscape:window-x="0"
     inkscape:window-y="29"
     inkscape:window-maximized="1"
     inkscape:current-layer="svg5" />
  <style
     id="style1">.l{fill:#f7911a} .b,.ax,.s{fill:#2e8b32}</style>
  <path
     id="path2"
     style="fill:#cacaca;fill-opacity:1;stroke-width:1.75602"
     class="l"
     d="M 34.341797 41.910156 C 33.381606 41.910156 32.599609 42.690275 32.599609 43.652344 C 32.599609 43.837082 32.628332 44.014603 32.681641 44.181641 C 33.597095 43.424131 34.477151 42.696007 35.427734 41.910156 L 34.341797 41.910156 z M 44.529297 41.910156 C 43.008998 43.164976 41.793815 44.173834 40.316406 45.394531 L 47.400391 45.394531 L 47.400391 41.910156 L 44.529297 41.910156 z " />
  <path
     id="path3"
     style="fill:#cacaca;fill-opacity:1;stroke-width:1.75602"
     class="l"
     d="M 26.941406 34.945312 C 25.981216 34.945312 25.201172 35.726063 25.201172 36.6875 C 25.201172 37.649551 25.981216 38.427734 26.941406 38.427734 L 39.638672 38.427734 C 41.143683 37.185023 42.312117 36.212384 43.833984 34.957031 C 43.840945 34.95129 43.840696 34.951054 43.847656 34.945312 L 26.941406 34.945312 z M 52.974609 34.945312 C 50.938887 36.622586 50.857895 36.684665 48.744141 38.427734 L 53.058594 38.427734 C 54.025001 38.427734 54.798828 37.649551 54.798828 36.6875 C 54.798828 35.726063 54.025001 34.945313 53.058594 34.945312 L 52.974609 34.945312 z " />
  <path
     id="path4"
     style="fill:#cacaca;fill-opacity:1;stroke-width:1.75602"
     class="l"
     d="M 26.941406 27.982422 C 25.981216 27.982422 25.201172 28.761219 25.201172 29.722656 C 25.201172 30.684707 25.981216 31.462891 26.941406 31.462891 L 48.078125 31.462891 C 50.144432 29.760124 50.385045 29.563133 52.304688 27.982422 L 26.941406 27.982422 z " />
  <path
     id="path5"
     style="fill:#777777;fill-opacity:1;stroke-width:1.75602"
     class="b"
     d="M 39.933594 6.9179688 C 33.352082 6.8699267 27.278353 8.9560199 21.822266 13.185547 C 15.615097 18.002653 11.842382 24.379621 10.714844 32.146484 C 9.4077345 41.166089 11.780114 49.230702 17.789062 56.125 C 17.86128 56.207873 17.936953 56.285357 18.009766 56.367188 C 18.049132 56.334006 18.06526 56.320983 18.105469 56.287109 C 19.227714 55.341685 20.996354 53.869288 22.697266 52.453125 C 22.593593 52.338397 22.483151 52.236498 22.380859 52.119141 C 17.536535 46.556781 15.688818 40.310205 16.748047 33.023438 C 17.646338 26.81504 20.528484 21.901715 25.558594 18.001953 C 29.888756 14.644273 34.515432 13.011719 39.712891 13.011719 C 40.989023 13.011719 42.315926 13.114557 43.660156 13.318359 C 49.409005 14.190591 54.047399 16.77754 57.826172 21.228516 C 58.200134 21.668355 58.549771 22.113785 58.886719 22.5625 C 60.558755 21.186894 62.422272 19.651737 63.599609 18.683594 C 63.239201 18.21153 62.865575 17.743301 62.472656 17.28125 C 57.7646 11.740666 51.743466 8.3801188 44.570312 7.2929688 C 42.998754 7.0547376 41.452404 6.9290554 39.933594 6.9179688 z M 66.695312 23.646484 C 65.410418 24.703294 63.628757 26.172801 61.837891 27.646484 C 63.437076 31.455662 63.904916 35.585769 63.265625 40.125 C 62.596583 44.85729 60.596595 48.956892 57.152344 52.660156 L 57.150391 52.660156 C 55.824686 54.088062 55.001953 56.173127 55.001953 58.103516 C 55.001953 59.515318 55.000813 61.351781 55.007812 63.285156 C 53.446713 62.261152 51.966465 61.29191 50.820312 60.542969 C 49.612314 59.757467 48.126351 59.324219 46.621094 59.324219 C 46.082136 59.324219 45.549336 59.380774 45.035156 59.494141 C 43.220137 59.89618 41.448284 60.101562 39.769531 60.101562 C 38.704033 60.101562 37.637698 60.01778 36.609375 59.855469 C 33.023091 59.29033 29.887583 58.116786 27.134766 56.304688 C 25.258205 57.865785 23.542983 59.295305 22.300781 60.339844 C 26.166786 63.256551 30.641721 65.085382 35.662109 65.876953 C 39.24895 66.441917 42.810511 66.230291 46.347656 65.447266 C 46.688376 65.372316 47.202975 65.458153 47.494141 65.648438 C 50.356097 67.515611 55.281468 70.755727 58.378906 72.785156 C 59.568309 73.567566 61.146771 72.708629 61.140625 71.283203 C 61.122015 67.547804 61.091797 61.561178 61.091797 58.109375 C 61.091797 57.694322 61.334192 57.114109 61.619141 56.810547 L 61.617188 56.810547 C 65.792468 52.314968 68.437853 47.04257 69.298828 40.978516 C 70.180413 34.723132 69.316248 28.925475 66.695312 23.646484 z " />
  <path
     style="fill:#777777;fill-opacity:1;stroke:#a3a3a3;stroke-width:7.756;stroke-linecap:round;stroke-dasharray:none;stroke-opacity:1"
     d="M 14.521384,57.779018 C 14.849035,57.20563 65.478616,15.594029 65.478616,15.594029"
     id="path6-3"
     sodipodi:nodetypes="cc" />
</svg>
