<?xml version="1.0" encoding="UTF-8" standalone="no"?>
<svg
   version="1.1"
   viewBox="0 0 80.000001 80.000003"
   id="svg5"
   sodipodi:docname="ax-working.svg"
   width="80"
   height="80"
   inkscape:version="1.3.2 (091e20ef0f, 2023-11-25, custom)"
   xmlns:inkscape="http://www.inkscape.org/namespaces/inkscape"
   xmlns:sodipodi="http://sodipodi.sourceforge.net/DTD/sodipodi-0.dtd"
   xmlns="http://www.w3.org/2000/svg"
   xmlns:svg="http://www.w3.org/2000/svg">
  <defs
     id="defs5" />
  <sodipodi:namedview
     id="namedview5"
     pagecolor="#ffffff"
     bordercolor="#000000"
     borderopacity="0.25"
     inkscape:showpageshadow="2"
     inkscape:pageopacity="0.0"
     inkscape:pagecheckerboard="0"
     inkscape:deskcolor="#d1d1d1"
     inkscape:zoom="11.073535"
     inkscape:cx="10.339969"
     inkscape:cy="38.154033"
     inkscape:window-width="3440"
     inkscape:window-height="1383"
     inkscape:window-x="0"
     inkscape:window-y="57"
     inkscape:window-maximized="1"
     inkscape:current-layer="svg5" />
  <style
     id="style1">.l{fill:#f7911a} .b,.ax,.s{fill:#2e8b32}</style>
  <g
     id="g5"
     transform="matrix(1.7560187,0,0,1.7560187,-31.339063,-31.916501)">
    <path
       class="l"
       d="m 40.623697,42.042129 c -0.54681,0 -0.99131,0.44379 -0.99131,0.99166 0,0.54787 0.4445,0.99166 0.99131,0.99166 0.55033,0 0.99483,-0.44379 0.99483,-0.99166 0,-0.54787 -0.4445,-0.99166 -0.99483,-0.99166"
       style="fill:#f7911a"
       id="path1" />
    <path
       class="l"
       d="m 36.411507,43.034129 c 0,0.54786 0.4445,0.99166 0.9913,0.99166 h 7.4366 v -1.9833 h -7.4366 c -0.5468,0 -0.9913,0.44379 -0.9913,0.99166"
       style="fill:#f7911a"
       id="path2" />
    <path
       class="l"
       d="m 48.061952,38.076129 h -14.873 c -0.5468,0 -0.9913,0.44415 -0.9913,0.99166 0,0.54786 0.4445,0.99166 0.9913,0.99166 h 14.873 c 0.55034,0 0.99131,-0.4438 0.99131,-0.99166 0,-0.54751 -0.44097,-0.99166 -0.99131,-0.99166"
       style="fill:#f7911a"
       id="path3" />
    <path
       class="l"
       d="m 33.188952,36.093129 h 14.873 c 0.55034,0 0.99131,-0.44379 0.99131,-0.99166 0,-0.54751 -0.44097,-0.9913 -0.99131,-0.9913 h -14.873 c -0.5468,0 -0.9913,0.44379 -0.9913,0.9913 0,0.54786 0.4445,0.99166 0.9913,0.99166"
       style="fill:#f7911a"
       id="path4" />
    <path
       class="b"
       d="m 50.392321,48.164129 c -0.75495,0.81315 -1.2241,2.0002 -1.2241,3.0995 0,0.80398 0,1.8496 0.004,2.9506 -0.889,-0.58314 -1.7321,-1.1352 -2.3848,-1.5617 -0.68792,-0.44732 -1.5346,-0.69321 -2.3918,-0.69321 -0.30692,0 -0.61031,0.0321 -0.90312,0.09666 -1.0336,0.22895 -2.0426,0.34502 -2.9986,0.34502 -0.60677,0 -1.2136,-0.04692 -1.7992,-0.13935 -3.3267,-0.52423 -5.9761,-1.965 -8.1033,-4.4055 -2.7587,-3.1676 -3.81,-6.7254 -3.2068,-10.875 0.51155,-3.5355 2.152,-6.3334 5.0165,-8.5542 2.4659,-1.9121 5.1012,-2.8416 8.061,-2.8416 0.72672,0 1.4817,0.05856 2.2472,0.17462 3.2738,0.49671 5.9161,1.9699 8.068,4.5046 2.6635,3.1327 3.676,6.6527 3.0974,10.761 -0.381,2.6949 -1.5205,5.0296 -3.4819,7.1385 z m 2.5435,2.3633 c 2.3777,-2.5601 3.8841,-5.5626 4.3744,-9.0159 0.71261,-5.0564 -0.56797,-9.5913 -3.8876,-13.495 -2.6811,-3.1552 -6.1101,-5.0691 -10.195,-5.6882 -4.7731,-0.72355 -9.1299,0.39158 -12.954,3.356 -3.5348,2.7432 -5.6832,6.375 -6.3253,10.798 -0.74436,5.1364 0.60678,9.7289 4.0287,13.655 2.6988,3.097 6.1278,4.9145 10.178,5.5531 2.0426,0.32173 4.0711,0.20073 6.0854,-0.24518 0.19403,-0.04268 0.48683,0.0063 0.65264,0.11466 1.6298,1.0633 4.4344,2.9094 6.1983,4.0651 0.67733,0.44556 1.5769,-0.04375 1.5734,-0.85549 -0.0106,-2.1272 -0.0282,-5.5372 -0.0282,-7.5029 0,-0.23636 0.13759,-0.56585 0.29986,-0.73872"
       style="fill:#2e8b32"
       id="path5" />
  </g>
</svg>
