<?xml version="1.0" encoding="UTF-8" standalone="no"?>
<svg
   viewBox="0 0 24 24"
   version="1.1"
   id="svg2"
   sodipodi:docname="open.svg"
   inkscape:version="1.3.2 (091e20ef0f, 2023-11-25, custom)"
   xmlns:inkscape="http://www.inkscape.org/namespaces/inkscape"
   xmlns:sodipodi="http://sodipodi.sourceforge.net/DTD/sodipodi-0.dtd"
   xmlns="http://www.w3.org/2000/svg"
   xmlns:svg="http://www.w3.org/2000/svg">
  <defs
     id="defs2" />
  <sodipodi:namedview
     id="namedview2"
     pagecolor="#ffffff"
     bordercolor="#000000"
     borderopacity="0.25"
     inkscape:showpageshadow="2"
     inkscape:pageopacity="0.0"
     inkscape:pagecheckerboard="0"
     inkscape:deskcolor="#d1d1d1"
     inkscape:zoom="9.8333333"
     inkscape:cx="11.949153"
     inkscape:cy="12"
     inkscape:window-width="3440"
     inkscape:window-height="1440"
     inkscape:window-x="2560"
     inkscape:window-y="0"
     inkscape:window-maximized="1"
     inkscape:current-layer="svg2" />
  <g
     id="g2"
     transform="matrix(0.70338983,0,0,0.70338983,3.5593226,3.559322)">
    <path
       d="m 8.6,17.33 a 0.94,0.94 0 0 0 -0.66,0 L 4.29,18.89 A 0.29,0.29 0 0 1 4,18.84 0.27,0.27 0 0 1 4,18.57 L 4.85,16.23 A 1,1 0 0 0 4.58,15.14 7,7 0 0 1 2,9.9 C 2,5.55 6.49,2 12,2 17.51,2 22,5.55 22,9.9 a 6.16,6.16 0 0 1 -0.05,0.75 0.24,0.24 0 0 0 0.11,0.23 8.29,8.29 0 0 1 1.27,1.12 0.25,0.25 0 0 0 0.42,-0.11 8.06,8.06 0 0 0 0.25,-2 C 24,4.44 18.62,0 12,0 5.38,0 0,4.44 0,9.9 a 8.86,8.86 0 0 0 2.71,6.26 l -1.6,4.4 a 1,1 0 0 0 0.25,1.07 1,1 0 0 0 1.07,0.2 l 6,-2.49 c 0.34,0.09 0.69,0.17 1,0.23 a 0.23,0.23 0 0 0 0.22,-0.08 0.23,0.23 0 0 0 0.06,-0.22 8.54,8.54 0 0 1 -0.2,-1.53 0.23,0.23 0 0 0 -0.2,-0.23 z"
       fill="#3bff00"
       stroke-width="1"
       id="path1" />
    <path
       d="M 17.5,11 A 6.5,6.5 0 1 0 24,17.5 6.51,6.51 0 0 0 17.5,11 Z m -3.39,6.68 a 0.74,0.74 0 0 1 1.06,0 l 1.5,1.5 2.9,-3.88 a 0.75301062,0.75301062 0 1 1 1.2,0.91 l -2.9,3.87 a 1.5,1.5 0 0 1 -2.26,0.16 l -1.5,-1.5 a 0.74,0.74 0 0 1 0,-1.06 z"
       fill="#3bff00"
       stroke-width="1"
       id="path2" />
  </g>
</svg>
