<svg xmlns="http://www.w3.org/2000/svg" fill="none" viewBox="0 0 24 24"><path fill="#ff808c" d="M12 23.5c6.351 0 11.5 -5.149 11.5 -11.5S18.351 0.5 12 0.5 0.5 5.649 0.5 12 5.649 23.5 12 23.5Z" stroke-width="1"></path><path fill="#ffccd1" d="M12 23.5a11.5 11.5 0 1 1 0 -23v23Z" stroke-width="1"></path><path stroke="#191919" stroke-linecap="round" stroke-linejoin="round" d="M12 23.5c6.351 0 11.5 -5.149 11.5 -11.5S18.351 0.5 12 0.5 0.5 5.649 0.5 12 5.649 23.5 12 23.5Z" stroke-width="1"></path><path fill="#ffffff" stroke="#191919" stroke-linecap="round" stroke-linejoin="round" d="M18 10.5H6a0.5 0.5 0 0 0 -0.5 0.5v2a0.5 0.5 0 0 0 0.5 0.5h12a0.5 0.5 0 0 0 0.5 -0.5v-2a0.5 0.5 0 0 0 -0.5 -0.5Z" stroke-width="1"></path></svg>